<?xml version="1.0" encoding="UTF-8" standalone="no"?>
<!-- Created with Inkscape (http://www.inkscape.org/) -->

<svg
   xmlns:dc="http://purl.org/dc/elements/1.1/"
   xmlns:cc="http://creativecommons.org/ns#"
   xmlns:rdf="http://www.w3.org/1999/02/22-rdf-syntax-ns#"
   xmlns:svg="http://www.w3.org/2000/svg"
   xmlns="http://www.w3.org/2000/svg"
   version="1.1"
   width="55"
   height="55"
   id="svg2">
  <metadata
     id="metadata9">
    <rdf:RDF>
      <cc:Work
         rdf:about="">
        <dc:format>image/svg+xml</dc:format>
        <dc:type
           rdf:resource="http://purl.org/dc/dcmitype/StillImage" />
        <dc:title></dc:title>
      </cc:Work>
    </rdf:RDF>
  </metadata>
  <defs
     id="defs7" />
  <path
     d="m 24.344263,13.862704 a 6.1987705,5.747951 0 1 1 -12.397541,0 6.1987705,5.747951 0 1 1 12.397541,0 z"
     id="path3025"
     style="fill:#ffffff;fill-opacity:1;stroke:none" />
  <path
     d="m 24.344263,13.862704 a 6.1987705,5.747951 0 1 1 -12.397541,0 6.1987705,5.747951 0 1 1 12.397541,0 z"
     transform="translate(12.059426,-2.1413931)"
     id="path3025-0"
     style="fill:#ffffff;fill-opacity:1;stroke:none" />
  <g
     transform="translate(96.393309,-23.541699)"
     id="g2985">
    <path
       d="m -70.540659,72.810321 c -0.715,-0.112884 -1.48,-0.19194 -1.7,-0.175684 -1.427872,0.10551 -2.05243,-0.0049 -3.108541,-0.549592 -0.7442,-0.383814 -1.245179,-0.532374 -1.420548,-0.42125 -0.623406,0.395026 -3.001338,-0.09233 -3.407374,-0.69834 -0.07506,-0.112018 -0.490742,-0.182766 -0.92375,-0.157218 -0.649789,0.03834 -0.957788,-0.08844 -1.763537,-0.725908 -0.536938,-0.424798 -1.227609,-1.135654 -1.534825,-1.579676 -0.307216,-0.444024 -0.876435,-0.97691 -1.264931,-1.184192 -0.859819,-0.458756 -2.013245,-2.012628 -2.481997,-3.343696 -0.264313,-0.750544 -0.387636,-0.909922 -0.520445,-0.672606 -0.09573,0.171056 -0.264052,0.321338 -0.374052,0.333958 -0.11,0.01262 -0.403669,0.07406 -0.652597,0.13654 -0.843969,0.211822 -1.070827,-0.23639 -1.019039,-2.013356 0.02593,-0.889744 -0.02716,-1.842716 -0.117977,-2.117716 -0.361881,-1.095782 -1.317423,-3 -1.505409,-3 -0.288087,0 -0.736632,-1.17598 -0.899093,-2.357208 -0.151249,-1.099712 0.180262,-3.068996 0.629139,-3.737293 0.338839,-0.504468 0.335352,-0.705498 -0.01224,-0.705498 -0.39868,0 -0.958097,-1.299591 -0.885013,-2.055989 0.05926,-0.613295 0.109921,-0.649444 1.062225,-0.757922 1.15892,-0.132013 2.705149,-0.742397 1.95,-0.769775 -0.334656,-0.01213 -0.45,-0.137038 -0.45,-0.487303 0,-0.54861 1.787206,-2.338635 2.832753,-2.837222 0.606476,-0.289208 0.667247,-0.398044 0.667247,-1.194988 0,-1.242052 0.239445,-1.405792 1.434876,-0.981212 0.593124,0.210659 1.191975,0.295937 1.51277,0.215422 0.523239,-0.131325 0.526724,-0.143503 0.238482,-0.833362 -1.108405,-2.652788 -0.09695,-6.004927 2.313872,-7.668567 1.590775,-1.09775 2.291768,-1.324959 4.013759,-1.30096 1.728862,0.0241 2.774085,0.40819 4.181797,1.536708 l 0.895554,0.717939 0.57665,-0.941384 c 0.856932,-1.398948 1.70382,-2.209574 2.93224,-2.806691 0.978844,-0.475802 1.331298,-0.534694 3.2,-0.534694 1.94313,0 2.169672,0.04175 3.0327,0.558866 1.064878,0.638066 2.36922,1.980467 2.884106,2.968262 0.207344,0.397784 0.387752,1.296802 0.44128,2.19902 l 0.09055,1.526148 0.903598,0.123852 c 1.77354,0.243091 2.913742,0.135786 4.01763,-0.378102 0.588422,-0.273925 1.143942,-0.498046 1.234488,-0.498046 0.246728,0 0.65026,1.369575 0.534246,1.813213 -0.08108,0.310038 0.0043,0.387658 0.43013,0.391179 1.450542,0.01199 3.231276,1.522805 3.231276,2.741484 0,0.764933 0.621736,1.205236 1.823432,1.291326 0.7876,0.05642 0.882954,0.118232 0.939484,0.608973 0.04312,0.3743 -0.09545,0.704542 -0.440332,1.049423 l -0.503248,0.503248 0.701492,0.750577 c 1.17841,1.260864 1.505576,2.186388 1.252396,3.542914 -0.04977,0.266678 0.05489,0.417419 0.326776,0.470647 0.664616,0.130116 1.051482,0.600654 0.946286,1.150948 -0.10319,0.539806 -1.089538,1.397891 -1.746286,1.519203 -0.363096,0.06707 -0.393692,0.203684 -0.33163,1.480784 0.08996,1.851166 -0.211252,2.880216 -1.165932,3.983264 -1.157244,1.33709 -1.510866,3.126966 -0.972682,4.923266 0.298598,0.996634 0.0074,1.37955 -1.049108,1.37955 -0.64368,0 -0.818584,0.09322 -1.063508,0.566854 -0.161222,0.311768 -0.657532,1.027856 -1.102914,1.591306 -0.606846,0.767718 -1.023356,1.087134 -1.662004,1.27457 -0.794644,0.233218 -1.447374,0.80339 -1.450762,1.26727 -8e-4,0.11 -0.0951,0.2 -0.209548,0.2 -0.11445,0 -0.56445,0.279478 -1,0.621062 -1.064286,0.834672 -1.50495,1.04855 -2.336042,1.13381 -0.412758,0.04234 -1.018326,0.332344 -1.46802,0.703022 -0.940822,0.775504 -2.25508,1.242106 -3.498592,1.242106 -0.574568,0 -1.391762,0.200018 -2.103876,0.514948 -1.357784,0.600476 -3.1457,0.76002 -5.085382,0.453788 z m -4.770364,-30.328477 c 4.070836,-2.329096 3.98531,-7.647258 -0.156732,-9.745966 -3.177502,-1.60999 -7.200826,0.0983 -8.143415,3.457661 -0.406794,1.4498 -0.410466,1.902766 -0.02593,3.19765 0.413421,1.39214 2.071505,3.103673 3.425971,3.53641 1.56309,0.499389 3.566735,0.317121 4.900103,-0.445755 z m -2.349525,-1.575074 c -1.716985,-0.856525 -1.701617,-3.452078 0.02595,-4.382434 0.451901,-0.243365 0.904968,-0.310985 1.576497,-0.235294 1.12315,0.126595 1.828208,0.708293 2.146612,1.771031 0.186906,0.623833 0.162404,0.864958 -0.153363,1.509338 -0.716042,1.46121 -2.2235,2.021884 -3.595694,1.337359 z m 14.120443,-0.537759 c 2.451046,-1.378141 3.633324,-3.9485 2.92451,-6.358098 -0.287742,-0.978168 -0.701536,-1.632922 -1.668756,-2.640503 -0.19597,-0.204146 -0.851308,-0.606182 -1.456308,-0.893414 -1.451774,-0.689247 -3.453858,-0.728137 -4.843578,-0.09409 -1.835666,0.837512 -3.37693,2.929142 -3.416524,4.636524 -0.0232,1.000289 0.342626,2.906937 0.622292,3.243345 0.12748,0.153344 0.466138,0.571307 0.752574,0.928807 0.286436,0.3575 0.640294,0.65 0.786348,0.65 0.146056,0 0.29789,0.097 0.337408,0.215563 0.03952,0.118559 0.56452,0.391546 1.166668,0.606638 1.502724,0.536785 3.539048,0.41161 4.795366,-0.294776 z m -6.087068,-3.316694 c -0.785068,-0.51752 -1.097872,-1.134064 -1.106398,-2.180731 -0.0059,-0.723671 0.104632,-0.981719 0.657138,-1.534226 1.12587,-1.12587 2.690094,-1.172223 3.751158,-0.111159 0.744908,0.744907 0.91475,1.494396 0.565634,2.496063 -0.536904,1.540456 -2.515918,2.221043 -3.867532,1.330053 z"
       id="path2987"
       style="fill:#aaaaaa;fill-opacity:1" />
    <path
       d="m -71.140659,72.636853 c -0.495,-0.08507 -1.273026,-0.107868 -1.728948,-0.05067 -0.636442,0.07985 -1.1009,-0.02331 -2,-0.444222 -0.924994,-0.433028 -1.489311,-0.553698 -2.685725,-0.574298 -1.289856,-0.02221 -1.637231,-0.10719 -2.340379,-0.57255 -0.526549,-0.348482 -0.873326,-0.469418 -0.957145,-0.333794 -0.373858,0.604914 -2.065701,-0.477828 -3.298953,-2.11126 -0.443006,-0.586756 -1.077891,-1.179672 -1.410856,-1.317592 -0.754729,-0.312618 -1.806087,-1.668398 -2.394302,-3.087572 l -0.447812,-1.080426 -0.581219,0.30056 c -0.319671,0.165308 -0.822744,0.272658 -1.11794,0.238558 l -0.536721,-0.062 0,-2 c 0,-1.780718 -0.0641,-2.142534 -0.584628,-3.3 -0.321545,-0.715 -0.783189,-1.525 -1.025875,-1.8 -1.024302,-1.16069 -1.176989,-3.94221 -0.307926,-5.609543 0.240378,-0.461176 0.410361,-0.8605 0.37774,-0.887388 -0.03262,-0.02689 -0.258754,-0.152608 -0.502518,-0.279378 -0.565163,-0.293916 -0.965303,-1.647234 -0.65724,-2.222855 0.165931,-0.310044 0.418586,-0.400835 1.115451,-0.400835 0.509264,0 1.245256,-0.175662 1.692964,-0.404065 0.908144,-0.463301 0.989946,-0.5783 0.320303,-0.45029 -0.697614,0.133358 -0.852243,-0.479759 -0.283925,-1.125787 0.875431,-0.995136 1.636945,-1.625678 2.380938,-1.971446 0.702879,-0.326659 0.753589,-0.410848 0.812201,-1.348412 0.07029,-1.124308 -0.204956,-1.032455 2.312515,-0.771726 0.58043,0.06011 1.05,0.02696 1.05,-0.07414 0,-0.100586 -0.144659,-0.607434 -0.321465,-1.126331 -0.458441,-1.34545 -0.315236,-3.529833 0.316296,-4.824644 0.598355,-1.226789 1.875209,-2.495686 3.146827,-3.127217 0.795389,-0.395018 1.264407,-0.475946 2.758342,-0.475946 2.029399,0 2.975937,0.341858 4.457256,1.609812 l 0.827028,0.707905 0.489958,-0.966888 c 0.60167,-1.187336 2.022018,-2.527551 3.281818,-3.096662 1.417994,-0.640574 4.207322,-0.631014 5.44394,0.01866 2.304756,1.210833 3.55069,3.039041 3.748226,5.499921 0.12206,1.520634 0.125442,1.522648 2.551774,1.520128 1.164126,-0.0012 1.837508,-0.109433 2.47184,-0.397269 1.38215,-0.627165 1.62816,-0.491406 1.62816,0.898492 0,0.604826 0.06355,0.673306 0.743088,0.800789 1.542824,0.289435 2.865352,1.421197 2.952298,2.526448 0.07426,0.944001 0.88465,1.578664 2.015766,1.578664 0.766488,0 0.888848,0.05718 0.888848,0.415384 0,0.228462 -0.257518,0.672904 -0.572264,0.987649 l -0.572264,0.572265 0.696686,0.662351 c 1.186076,1.12762 1.830568,3.099625 1.214398,3.715794 -0.177924,0.177925 -0.14225,0.262655 0.15,0.356271 1.03293,0.330876 1.283444,0.506816 1.283444,0.901382 0,0.574346 -1.038058,1.566515 -1.797982,1.718499 -0.473814,0.09476 -0.591928,0.202462 -0.490886,0.447596 0.619334,1.502544 0.197196,3.5855 -1.014288,5.00479 -1.021128,1.196282 -1.21613,2.039968 -1.029844,4.45568 0.120404,1.561364 0.116552,1.578492 -0.399128,1.774552 -0.286388,0.108886 -0.674584,0.149134 -0.862658,0.08944 -0.254406,-0.08074 -0.582002,0.252466 -1.279542,1.30147 -0.893478,1.343666 -1.872588,2.194506 -2.527212,2.196128 -0.165848,4e-4 -0.784708,0.493358 -1.375244,1.095438 -1.118478,1.140338 -2.758838,2.10531 -3.578826,2.10531 -0.262388,0 -0.852218,0.297476 -1.31073,0.661056 -1.133302,0.89866 -1.77078,1.141876 -3.31627,1.265248 -0.724564,0.05784 -1.49739,0.18405 -1.71739,0.280466 -1.563798,0.685336 -2.058006,0.79155 -3.574424,0.768196 -0.894068,-0.01377 -2.030576,-0.09463 -2.525576,-0.179698 z m -4.55414,-29.834065 c 1.278348,-0.54993 2.815008,-2.239098 3.262458,-3.586245 0.852146,-2.56557 -0.41948,-5.298307 -3.108318,-6.679804 -1.019266,-0.523688 -3.300112,-0.626907 -4.565507,-0.20661 -1.287903,0.427773 -2.868473,1.885265 -3.436127,3.168558 -0.553729,1.251811 -0.571287,3.194297 -0.03973,4.395959 1.321653,2.987815 4.757313,4.254596 7.887229,2.908142 z m -2.169731,-2.14312 c -0.615435,-0.375279 -1.076129,-1.274937 -1.076129,-2.1015 0,-0.233051 0.226086,-0.756444 0.502414,-1.163096 1.699386,-2.500872 5.704794,-0.158844 4.170478,2.438547 -0.698303,1.182133 -2.379577,1.568262 -3.596763,0.826049 z m 14.266759,-0.143834 c 3.659732,-1.743063 4.379994,-6.571617 1.374854,-9.216848 -2.964364,-2.609337 -7.747966,-1.647943 -9.42923,1.895057 -0.485846,1.023843 -0.555582,1.864167 -0.2869,3.457095 0.220474,1.307127 0.341616,1.560706 1.167274,2.443401 1.972374,2.108629 4.626746,2.634506 7.174002,1.421295 z m -5.285606,-3.214441 c -0.70461,-0.136427 -1.612914,-1.119924 -1.76041,-1.906142 -0.17208,-0.917267 0.34955,-2.063975 1.120166,-2.462475 0.309704,-0.160155 0.981568,-0.29119 1.49303,-0.29119 0.790904,0 1.031596,0.101663 1.609932,0.68 0.570278,0.570279 0.68,0.824094 0.68,1.573028 0,1.057424 -0.538344,1.858055 -1.527156,2.271208 -0.666466,0.278467 -0.813724,0.290824 -1.615562,0.135571 z"
       id="path2989"
       style="fill:none" />
    <path
       d="m -70.940659,72.456129 c -0.275,-0.07903 -1.070032,-0.109858 -1.766736,-0.06851 -0.696704,0.04134 -1.371704,-0.0072 -1.5,-0.107852 -0.128295,-0.100664 -0.474471,-0.240568 -0.769279,-0.3109 -0.294808,-0.07033 -0.679069,-0.270934 -0.853914,-0.445778 -0.25062,-0.25062 -0.440127,-0.275292 -0.895422,-0.116576 -0.609592,0.212506 -1.609646,0.0659 -2.386483,-0.34985 -0.254334,-0.136116 -0.513936,-0.195972 -0.576893,-0.133014 -0.06296,0.06296 -0.24893,0.0027 -0.41327,-0.133796 -0.164341,-0.136544 -0.641562,-0.257686 -1.060491,-0.269204 -0.679511,-0.01868 -0.955674,-0.212884 -2.559657,-1.8 -0.988882,-0.978482 -2.116499,-2.034602 -2.505817,-2.34693 -0.423451,-0.33971 -1.002052,-1.163144 -1.440096,-2.049466 -0.555339,-1.123652 -0.792755,-1.431376 -0.982709,-1.273728 -0.137756,0.114328 -0.529075,0.287772 -0.869597,0.385432 -0.935118,0.268188 -1.192529,-0.100756 -1.009796,-1.447324 0.08111,-0.597714 0.08067,-1.437818 -9.8e-4,-1.866898 -0.218597,-1.148678 -1.186155,-3.31084 -1.721366,-3.84667 -0.696978,-0.69778 -1.00446,-2.426588 -0.698138,-3.92526 0.133977,-0.65548 0.378205,-1.452087 0.542727,-1.770239 0.276339,-0.53438 0.269565,-0.599168 -0.08891,-0.850252 -0.487641,-0.34155 -0.896693,-1.306312 -0.809575,-1.909384 0.05629,-0.38967 0.249068,-0.494279 1.266399,-0.687204 1.865564,-0.353781 3.081947,-1.091136 1.8,-1.091136 -0.336491,0 -0.5,-0.110755 -0.5,-0.338681 0,-0.487949 2.01467,-2.368412 2.868054,-2.677 0.683904,-0.247303 0.71813,-0.301534 0.614128,-0.973109 -0.06847,-0.442156 -0.0088,-0.847038 0.15777,-1.070254 0.248768,-0.333394 0.320748,-0.336966 1.007554,-0.05 0.821369,0.343189 1.513822,0.390801 1.921958,0.132149 0.22396,-0.141933 0.211927,-0.429388 -0.07126,-1.702259 -0.510169,-2.293113 -0.03535,-4.280145 1.405796,-5.88305 2.450599,-2.725657 6.734575,-2.883115 9.34939,-0.343639 l 0.715998,0.695368 0.456752,-0.944762 c 1.111158,-2.298354 3.330626,-3.644763 6.008158,-3.644763 1.799478,0 2.684338,0.268106 3.888444,1.17817 1.687482,1.275401 2.492752,2.913123 2.554282,5.194782 l 0.02486,0.921809 1.099058,0.167071 c 1.59186,0.241983 3.239858,0.05324 4.188004,-0.479649 0.990336,-0.5566 1.265728,-0.377181 1.325914,0.863835 0.04056,0.836417 0.05722,0.855216 0.882552,0.996111 0.462666,0.07898 1.12497,0.30933 1.471788,0.511883 0.686348,0.400848 1.554728,1.750925 1.394604,2.1682 -0.05487,0.143 0.12923,0.489002 0.409122,0.768894 0.392318,0.392318 0.712244,0.508894 1.396588,0.508894 1.163846,0 1.308594,0.383229 0.494824,1.310063 l -0.623212,0.7098 0.82091,0.812785 c 0.989774,0.979978 1.588012,2.513286 1.2367,3.169717 -0.266872,0.498654 0.03386,0.997635 0.601266,0.997635 0.55088,0 0.867508,0.500158 0.615142,0.971706 -0.316064,0.590572 -1.207522,1.228293 -1.717004,1.228293 -0.437572,0 -0.4456,0.04067 -0.347532,1.760628 0.113154,1.984536 -0.09107,2.607864 -1.257932,3.839372 -0.913468,0.964078 -1.265994,2.662468 -0.943464,4.545384 0.126446,0.738194 0.206638,1.365434 0.178202,1.39387 -0.07893,0.07893 -0.97355,0.229188 -1.463934,0.245884 -0.240088,0.0082 -0.488452,0.172362 -0.55192,0.364862 -0.06347,0.1925 -0.362034,0.633212 -0.663478,0.979358 -0.301444,0.346148 -0.77308,0.904836 -1.04808,1.241532 -0.275,0.336694 -0.609762,0.615982 -0.743916,0.62064 -0.341752,0.01186 -1.695622,0.779138 -2.056084,1.16523 -0.270924,0.29019 -0.266078,0.29579 0.05,0.0578 0.1925,-0.144946 0.35,-0.218328 0.35,-0.163076 0,0.19645 -2.109978,1.673946 -2.7,1.890652 -0.33,0.121204 -0.78,0.286304 -1,0.366888 -0.22,0.08058 -0.54354,0.16295 -0.718976,0.183038 -0.32714,0.03746 -1.581024,0.857 -1.581024,1.033362 0,0.054 0.1125,0.03467 0.25,-0.04296 0.185364,-0.104652 0.192894,-0.07904 0.02912,0.09908 -0.121484,0.13212 -0.513572,0.277262 -0.871308,0.322536 -0.357736,0.04527 -0.768494,0.1803 -0.912794,0.30006 -0.1443,0.119758 -0.742212,0.207422 -1.328692,0.194806 -0.652422,-0.01404 -1.53212,0.1475 -2.266328,0.416146 -1.25002,0.457382 -4.11701,0.68194 -5.1,0.399458 z m -1.856848,-0.81876 c 0.06898,-0.263792 0.184066,-0.3433 0.331276,-0.228864 0.453758,0.35273 2.145004,0.63308 3.819132,0.63308 1.78529,0 3.606058,-0.466164 4.310382,-1.103568 0.314748,-0.284842 0.357704,-0.284856 0.466956,-1.54e-4 0.08754,0.228124 0.271358,0.278582 0.67471,0.185204 1.156538,-0.26774 2.886474,-1.165216 3.42225,-1.775432 0.475664,-0.54175 0.663786,-0.622036 1.287038,-0.549274 1.219506,0.14237 2.94283,-1.240418 3.98527,-3.197764 l 0.457492,-0.859012 0.06384,0.65 c 0.07723,0.786292 0.56876,0.869714 1.178424,0.2 0.760828,-0.835768 1.849346,-2.645856 1.977948,-3.289114 l 0.127774,-0.639114 0.57855,0.427742 c 0.769616,0.569 1.016008,0.29603 0.721612,-0.799448 -0.176962,-0.658496 -0.169376,-1.108976 0.03368,-2 0.14415,-0.632536 0.377644,-1.735066 0.518874,-2.450066 0.141232,-0.715 0.266876,-1.0975 0.279208,-0.85 0.01234,0.2475 0.09674,0.45 0.187564,0.45 0.21618,0 0.92437,-0.782518 1.20987,-1.336852 0.309042,-0.600044 0.282434,-2.408708 -0.05177,-3.519186 l -0.276762,-0.919611 0.926762,0.107886 c 0.811626,0.09448 0.986284,0.04404 1.405876,-0.406056 l 0.479114,-0.513942 -0.542134,-0.206118 c -0.298174,-0.113366 -0.60862,-0.20612 -0.68988,-0.20612 -0.212478,0 -1.33756,-1.220741 -1.604244,-1.740643 -0.223834,-0.436366 -0.219276,-0.437821 0.469578,-0.15 0.912994,0.381473 0.908452,0.382907 0.908452,-0.286755 0,-0.761886 -1.082258,-2.344108 -2.165548,-3.165951 -0.76934,-0.583663 -0.812492,-0.656651 -0.388226,-0.656651 0.262528,0 0.652024,-0.128277 0.865548,-0.28506 0.374444,-0.27494 0.36824,-0.292689 -0.174794,-0.5 -0.30966,-0.118217 -0.627736,-0.21494 -0.706832,-0.21494 -0.0791,0 -0.635738,-0.506174 -1.23698,-1.12483 -0.988194,-1.016815 -1.040354,-1.112477 -0.543168,-0.99619 0.754222,0.176407 0.729036,-0.292774 -0.05095,-0.949089 -0.662384,-0.557359 -2.01466,-0.844606 -3.12665,-0.664155 -0.68799,0.111645 -0.698392,0.103591 -0.420558,-0.32563 0.346518,-0.535324 0.584606,-1.436991 0.422302,-1.599296 -0.06522,-0.06522 -0.620012,0.06904 -1.232884,0.298344 -0.964558,0.360887 -1.39953,0.40187 -3.236654,0.304954 l -2.122346,-0.111964 -0.470792,0.887454 c -0.5827,1.0984 -1.769326,2.190857 -2.986988,2.749945 -0.694832,0.319033 -1.321932,0.425178 -2.52448,0.427307 -1.9525,0.0035 -3.39467,-0.586406 -4.664352,-1.907767 -0.455856,-0.474412 -0.862092,-0.823533 -0.902744,-0.775825 -0.04065,0.04771 -0.18398,0.266742 -0.31851,0.486742 -0.204016,0.333636 -0.2255,0.339217 -0.129496,0.03364 0.06331,-0.201496 0.126366,-0.921496 0.140136,-1.6 0.02286,-1.126637 0.03658,-1.163349 0.158184,-0.423241 0.166782,1.015097 0.785252,1.89449 1.966958,2.79679 2.405784,1.836952 5.903624,1.639009 7.995074,-0.452442 1.20255,-1.202549 1.738656,-2.481392 1.74172,-4.154749 0.0042,-2.296939 -1.126356,-3.995093 -3.40719,-5.117742 -1.295368,-0.637594 -3.713028,-0.656152 -5.089184,-0.03907 -1.939336,0.869625 -3.475266,3.067347 -3.475948,4.973643 l -4e-4,1.016837 -0.426824,-0.916837 c -0.855722,-1.838206 -2.846189,-3.162083 -5.049148,-3.358257 -3.089792,-0.275148 -6.093993,2.228759 -6.391724,5.327302 -0.112877,1.174732 0.382399,2.979474 1.029338,3.750818 l 0.472449,0.563301 -0.824169,0.08147 c -1.355635,0.134013 -2.187324,0.119059 -2.87417,-0.05168 -0.547344,-0.13606 -0.65,-0.106279 -0.65,0.188565 0,0.474702 0.57852,1.081639 1.030998,1.081639 0.202951,0 0.369002,0.09 0.369002,0.2 0,0.11 -0.2925,0.200879 -0.65,0.201953 -1.215731,0.0037 -4.204881,1.823838 -3.874098,2.359055 0.0753,0.121837 0.246526,0.188241 0.380503,0.147564 0.133977,-0.04068 0.538524,-0.124983 0.898993,-0.187345 l 0.655398,-0.113387 -0.541524,0.678671 c -0.682345,0.855156 -2.061191,1.552212 -3.307275,1.671945 -0.75909,0.07294 -0.961997,0.168424 -0.961997,0.452704 0,0.495284 0.534244,0.985688 1.224107,1.123662 0.597888,0.119578 0.735302,0.343052 0.355338,0.577882 -0.121306,0.07497 -0.435427,0.597782 -0.698047,1.161803 -0.698773,1.500734 -0.66962,4.925492 0.04193,4.925492 0.152171,0 0.278052,-0.1575 0.279737,-0.35 0.0017,-0.1925 0.09949,-0.485 0.217349,-0.65 0.173955,-0.243536 0.196723,-0.219124 0.120969,0.129702 -0.101817,0.468842 0.164214,1.522904 0.993336,3.93577 0.483413,1.406802 0.515957,1.670328 0.321081,2.6 -0.11927,0.56899 -0.146228,1.109418 -0.05991,1.200948 0.227681,0.241422 0.859313,-0.212334 1.405835,-1.00993 l 0.474801,-0.692928 0.322163,1.176912 c 0.581559,2.12453 2.262359,4.442164 3.023128,4.168552 0.175777,-0.06322 0.572677,0.342392 1.078181,1.101844 0.44,0.661042 1.084723,1.47914 1.432719,1.817996 0.658565,0.64127 1.172229,0.616868 0.961939,-0.0457 -0.175092,-0.551666 0.04112,-0.480996 1.581675,0.51699 1.367164,0.885658 2.488933,1.268522 2.925731,0.998566 0.155575,-0.09615 0.08027,-0.30332 -0.237023,-0.652074 -0.255773,-0.281132 -0.330041,-0.43491 -0.165041,-0.341728 0.276377,0.15608 0.535378,0.32486 2.025623,1.32001 0.506677,0.338346 1.586101,0.719642 2.143101,0.75703 0.147798,0.0099 0.31629,-0.163858 0.374428,-0.386178 z m -0.343152,-6.09512 c -3.839743,-0.77312 -6.521456,-2.73301 -8.79163,-6.425232 -1.077134,-1.751854 -2.751634,-4.087894 -3.648209,-5.089496 -0.253089,-0.282736 -0.895622,-0.634162 -1.427852,-0.780946 -0.532231,-0.146784 -1.287069,-0.483616 -1.67742,-0.748516 -0.501153,-0.340092 -0.772202,-0.419162 -0.922309,-0.269054 -0.720964,0.720964 -1.054609,-0.745418 -0.363732,-1.598613 0.431316,-0.532652 1.031152,-0.414908 1.031152,0.202408 0,0.609681 1.485202,1.463009 2.729058,1.567991 1.432654,0.120916 2.842417,-0.392638 4.044376,-1.473301 0.541936,-0.487248 1.051464,-0.885904 1.132286,-0.885904 0.08082,0 0.09866,0.36 0.03964,0.8 -0.05908,0.440465 -0.02308,0.799999 0.08009,0.799999 0.465568,0 1.598991,-0.623125 2.322719,-1.276971 0.832213,-0.751854 1.051826,-0.752166 1.051826,-0.0014 0,0.683413 0.250859,0.721729 1.531399,0.233896 0.805173,-0.306738 1.539096,-0.804424 2.359925,-1.600308 0.65523,-0.635315 1.26273,-1.155118 1.35,-1.155118 0.22692,0 0.195824,0.556885 -0.05753,1.030278 -0.581398,1.086354 0.795812,0.50798 2.216946,-0.931029 l 1.065742,-1.079147 0.516758,0.359552 c 0.911358,0.634108 3.436812,1.073308 3.70223,0.643853 0.05999,-0.09707 -0.06675,-0.400019 -0.281646,-0.673218 -0.532794,-0.677336 -0.304404,-0.80973 0.600486,-0.34809 1.68705,0.860571 5.195688,1.529632 5.195688,0.990666 0,-0.11387 -0.147192,-0.431679 -0.327092,-0.706242 -0.435758,-0.66505 -0.280048,-0.761568 0.544626,-0.337589 1.628768,0.837378 4.946458,0.161222 6.571894,-1.339372 0.714056,-0.659214 0.797242,-0.826413 0.686538,-1.37993 -0.09995,-0.499727 -0.05883,-0.62983 0.199034,-0.62983 0.563518,0 1.125,0.748642 1.125,1.5 0,0.568303 -0.07579,0.7 -0.402826,0.7 -0.221554,0 -0.890092,0.396884 -1.48564,0.881965 -0.595548,0.48508 -1.255542,0.936786 -1.466652,1.00379 -0.483228,0.15337 -0.765702,1.082805 -1.171674,3.855194 -0.941198,6.427458 -2.552258,9.613116 -5.999712,11.863638 -0.790746,0.516204 -2.051192,1.184144 -2.80099,1.484308 -2.628096,1.0521 -6.427082,1.384684 -9.272506,0.811768 z m -3.4,-22.300663 c 0.165,-0.106632 0.39,-0.193875 0.5,-0.193875 0.11,0 0.065,0.08724 -0.1,0.193875 -0.165,0.106631 -0.39,0.193874 -0.5,0.193874 -0.11,0 -0.065,-0.08724 0.1,-0.193874 z m 0.816667,-0.272909 c 0.04583,-0.0401 0.308333,-0.180065 0.583333,-0.311034 0.471454,-0.224529 0.477835,-0.220366 0.111774,0.07291 -0.3186,0.255251 -0.969572,0.478256 -0.695107,0.238125 z m -6.216667,-0.627091 c -0.372742,-0.275 -0.592727,-0.496764 -0.488856,-0.492808 0.200762,0.0076 1.46645,0.990127 1.277712,0.991814 -0.06113,5.47e-4 -0.416114,-0.224006 -0.788856,-0.499006 z m 8,-0.6 c 0.373156,-0.385 0.723466,-0.7 0.778466,-0.7 0.055,0 -0.20531,0.315 -0.578466,0.7 -0.373157,0.385 -0.723467,0.7 -0.778467,0.7 -0.055,0 0.20531,-0.315 0.578467,-0.7 z m -3.50952,-0.971619 c -0.808,-0.364589 -1.29048,-1.141072 -1.29048,-2.076843 0,-2.568534 3.932193,-3.131584 4.59815,-0.658408 0.510114,1.894421 -1.495498,3.552946 -3.30767,2.735251 z m 4.50952,-0.328381 c 0.11774,-0.22 0.259074,-0.4 0.314074,-0.4 0.055,0 0.0037,0.18 -0.114074,0.4 -0.11774,0.22 -0.259074,0.4 -0.314074,0.4 -0.055,0 -0.0037,-0.18 0.114074,-0.4 z m 3.08,-3.88 c -2.116674,-2.116674 0.954878,-5.281975 3.206844,-3.304722 0.880914,0.773452 1.082906,1.66655 0.604798,2.674088 -0.415166,0.874896 -1.1804,1.310634 -2.30171,1.310634 -0.677178,0 -0.95509,-0.125159 -1.509932,-0.68 z"
       id="path3096"
       style="fill:#000000;fill-opacity:1" />
  </g>
  <path
     d="m 40.004296,28.657143 c -1.10877,0 -2.018763,0.909992 -2.018763,2.018761 l 0,4.629689 -3.283849,-3.283849 c -0.784855,-0.783184 -2.043082,-0.78485 -2.826264,0 -0.783183,0.784854 -0.784823,2.069998 0,2.85318 l 3.310766,3.28385 -4.683521,0 c -1.10877,0 -2.018762,0.909991 -2.018762,2.018762 0,1.108769 0.909992,1.991843 2.018762,1.991843 l 4.656605,0 -3.28385,3.283849 c -0.783181,0.784854 -0.784823,2.069999 0,2.85318 0.784855,0.783182 2.07,0.757938 2.85318,-0.02692 l 3.256933,-3.283849 0,4.683524 c 0,1.10877 0.909993,1.991844 2.018763,1.991844 1.108769,0 1.991843,-0.883074 1.991843,-1.991844 l 0,-4.71044 3.337683,3.310765 c 0.784853,0.783182 2.043082,0.784855 2.826262,0 0.783182,-0.784853 0.784858,-2.043082 0,-2.826262 l -3.310765,-3.28385 4.656607,0 c 1.10877,0 1.991844,-0.883074 1.991844,-1.991843 0,-1.108771 -0.883074,-2.018763 -1.991844,-2.018763 l -4.683523,0 3.310765,-3.337683 c 0.783182,-0.784854 0.784857,-2.016165 0,-2.799347 -0.784854,-0.78318 -2.043082,-0.811775 -2.826263,-0.02691 l -3.310766,3.337682 0,-4.656604 c 0,-1.10877 -0.883074,-2.018763 -1.991843,-2.018763 z"
     id="rect3894"
     style="fill:#ffffff;fill-opacity:1;stroke:#282828;stroke-width:1.72267997;stroke-linecap:round;stroke-linejoin:round;stroke-miterlimit:4;stroke-opacity:1;stroke-dasharray:none" />
</svg>
